<svg width="635" height="665" viewBox="0 0 635 665" fill="none" xmlns="http://www.w3.org/2000/svg">
<g clip-path="url(#clip0_4_2)">
<path d="M428.966 446.626C436.195 446.626 442.056 440.766 442.056 433.537C442.056 426.308 436.195 420.447 428.966 420.447C421.737 420.447 415.877 426.308 415.877 433.537C415.877 440.766 421.737 446.626 428.966 446.626Z" fill="#6C63FF"/>
<path d="M539.289 462.521H419.775C418.741 462.521 417.75 462.11 417.019 461.38C416.288 460.649 415.877 459.657 415.877 458.623C415.877 457.59 416.288 456.598 417.019 455.867C417.75 455.136 418.741 454.726 419.775 454.726H539.289C540.323 454.726 541.314 455.136 542.045 455.867C542.776 456.598 543.187 457.59 543.187 458.623C543.187 459.657 542.776 460.649 542.045 461.38C541.314 462.11 540.323 462.521 539.289 462.521Z" fill="#E6E6E6"/>
<path d="M449.458 477.923H419.775C418.741 477.923 417.749 477.512 417.018 476.781C416.287 476.05 415.877 475.059 415.877 474.025C415.877 472.991 416.287 472 417.018 471.269C417.749 470.538 418.741 470.127 419.775 470.127H449.458C450.492 470.127 451.484 470.538 452.215 471.269C452.946 472 453.356 472.991 453.356 474.025C453.356 475.059 452.946 476.05 452.215 476.781C451.484 477.512 450.492 477.923 449.458 477.923Z" fill="#E6E6E6"/>
<path d="M446.378 342.094H178.368C176.229 342.092 174.179 341.241 172.667 339.729C171.154 338.217 170.304 336.166 170.301 334.028V129.16C170.304 127.022 171.154 124.971 172.667 123.459C174.179 121.947 176.229 121.097 178.368 121.094H446.378C448.516 121.097 450.567 121.947 452.079 123.459C453.591 124.971 454.442 127.022 454.444 129.16V334.028C454.442 336.166 453.591 338.217 452.079 339.729C450.567 341.241 448.516 342.092 446.378 342.094Z" fill="white"/>
<path d="M446.378 343.094H178.368C175.964 343.091 173.66 342.135 171.96 340.436C170.26 338.736 169.304 336.431 169.302 334.028V129.16C169.304 126.756 170.26 124.452 171.96 122.752C173.66 121.053 175.964 120.097 178.368 120.094H446.378C448.781 120.097 451.086 121.053 452.785 122.752C454.485 124.452 455.441 126.756 455.444 129.16V334.028C455.441 336.431 454.485 338.736 452.785 340.436C451.086 342.135 448.781 343.091 446.378 343.094ZM178.368 122.094C176.494 122.096 174.698 122.841 173.374 124.166C172.049 125.491 171.304 127.287 171.301 129.16V334.028C171.304 335.901 172.049 337.697 173.373 339.022C174.698 340.347 176.494 341.092 178.368 341.094H446.378C448.251 341.092 450.047 340.347 451.372 339.022C452.697 337.697 453.442 335.901 453.444 334.028V129.16C453.442 127.287 452.697 125.491 451.372 124.166C450.047 122.841 448.251 122.096 446.378 122.094H178.368Z" fill="#F0F0F0"/>
<path d="M170.92 303.094V334.028C170.923 336.002 171.709 337.895 173.105 339.291C174.501 340.687 176.393 341.472 178.367 341.475H446.378C448.352 341.472 450.245 340.687 451.641 339.291C453.037 337.895 453.822 336.002 453.825 334.028V303.094H170.92Z" fill="#F0F0F0"/>
<path d="M173.446 122.399L172.368 124.083L453.286 303.936L454.364 302.252L173.446 122.399Z" fill="#F0F0F0"/>
<path d="M347.518 650.023L360.408 650.022L366.54 600.305L347.516 600.306L347.518 650.023Z" fill="#FFB6B6"/>
<path d="M344.23 645.815L347.858 645.814L362.023 640.054L369.615 645.814C373.905 645.814 378.02 647.518 381.054 650.552C384.088 653.585 385.792 657.7 385.792 661.99V662.516L344.231 662.517L344.23 645.815Z" fill="#2F2E41"/>
<path d="M231.053 633.265L242.589 639.014L270.256 597.254L253.229 588.768L231.053 633.265Z" fill="#FFB6B6"/>
<path d="M229.988 628.032L233.235 629.65L248.481 630.813L252.706 639.355L252.707 639.355C256.547 641.269 259.469 644.63 260.831 648.698C262.193 652.767 261.883 657.209 259.969 661.049L259.735 661.52L222.537 642.981L229.988 628.032Z" fill="#2F2E41"/>
<path d="M353.229 424.226L271.274 426.364L272.699 466.273C272.699 466.273 271.274 476.963 274.124 479.813C276.975 482.664 278.4 482.664 276.975 487.653C275.55 492.641 271.865 540.305 271.865 540.305C271.865 540.305 238.228 599.781 239.653 601.206C241.079 602.632 242.504 601.206 241.079 604.77C239.653 608.333 238.228 606.908 239.653 608.333C240.916 609.694 242.105 611.121 243.217 612.609H266.447C266.447 612.609 267.746 605.482 267.746 604.77C267.746 604.057 269.171 599.781 269.171 599.068C269.171 598.356 309.757 555.355 309.757 555.355L318.309 484.089L338.976 553.929C338.976 553.929 338.976 615.218 340.401 616.643C341.827 618.068 341.827 617.356 341.114 620.206C340.401 623.057 337.551 622.344 339.689 624.482C341.827 626.62 342.539 623.057 341.827 626.62L341.114 630.184L368.494 630.489C368.494 630.489 371.344 624.482 369.919 622.344C368.494 620.206 368.579 620.79 370.318 617.291C372.057 613.793 372.77 613.08 372.057 612.367C371.344 611.655 371.344 607.864 371.344 607.864C371.344 607.864 361.068 467.698 361.068 465.56C361.015 464.46 361.217 463.363 361.66 462.354V459.452L358.93 449.169L353.229 424.226Z" fill="#2F2E41"/>
<path d="M321.686 271.569C351.311 271.569 375.327 247.553 375.327 217.927C375.327 188.302 351.311 164.286 321.686 164.286C292.06 164.286 268.044 188.302 268.044 217.927C268.044 247.553 292.06 271.569 321.686 271.569Z" fill="#6C63FF"/>
<path d="M309.369 243.023C308.609 243.02 307.862 242.826 307.198 242.457C306.487 242.074 305.895 241.504 305.484 240.809C305.073 240.114 304.859 239.321 304.865 238.513V201.34C304.865 200.534 305.081 199.742 305.492 199.049C305.902 198.355 306.491 197.784 307.198 197.396C307.904 197.008 308.702 196.816 309.508 196.842C310.313 196.868 311.097 197.109 311.778 197.541L347.041 216.128C347.68 216.534 348.207 217.096 348.572 217.76C348.936 218.423 349.128 219.169 349.128 219.926C349.128 220.684 348.936 221.429 348.572 222.093C348.207 222.757 347.68 223.319 347.041 223.725L311.778 242.312C311.059 242.774 310.223 243.02 309.369 243.023Z" fill="white"/>
<path d="M327.811 289.309C327.811 289.309 300.413 286.569 298.586 289.309C297.394 291.56 296.767 294.067 296.76 296.615C296.76 296.615 285.801 301.181 283.974 299.355C282.147 297.528 280.321 292.048 274.841 293.875C269.362 295.701 258.865 327.305 258.865 327.305C258.865 327.305 259.865 327.305 265.708 356.891C269.65 376.849 268.998 393.24 269.431 404.402C269.502 406.241 266.813 412.741 266.865 414.305C267.094 421.273 269.922 420.674 270.275 421.734C271.188 424.473 265.708 440.912 298.586 440.912C331.464 440.912 355.209 439.086 355.209 432.693C355.209 429.469 358.544 427.581 357.865 417.305C357.679 414.485 352.818 404.858 352.783 401.855C352.724 397.977 352.869 394.1 353.217 390.238C353.554 386.379 354.22 382.555 355.209 378.81C360.689 358.717 362.865 322.305 362.865 322.305L353.865 304.305L334.204 301.181C334.204 301.181 333.291 290.222 327.811 289.309Z" fill="#3F3D56"/>
<path d="M319.888 282.949C332.532 279.516 339.998 266.483 336.565 253.84C333.132 241.196 320.1 233.73 307.457 237.163C294.813 240.596 287.347 253.628 290.78 266.272C294.212 278.915 307.245 286.382 319.888 282.949Z" fill="#FFB6B6"/>
<path d="M427.108 623.239L427.815 607.339C435.187 603.398 443.409 601.317 451.768 601.276C440.264 610.681 441.701 628.811 433.902 641.459C431.439 645.385 428.124 648.707 424.203 651.178C420.282 653.649 415.855 655.206 411.251 655.733L401.624 661.628C400.303 654.263 400.594 646.7 402.477 639.459C404.361 632.219 407.791 625.472 412.533 619.685C415.226 616.464 418.313 613.596 421.722 611.147C424.028 617.227 427.108 623.239 427.108 623.239Z" fill="#F2F2F2"/>
<path d="M554.75 663.342C554.751 663.546 554.711 663.748 554.633 663.937C554.556 664.126 554.441 664.297 554.297 664.442C554.152 664.586 553.981 664.7 553.792 664.778C553.604 664.856 553.401 664.896 553.197 664.895H135.147C134.735 664.895 134.34 664.731 134.049 664.44C133.757 664.149 133.594 663.754 133.594 663.342C133.594 662.93 133.757 662.535 134.049 662.244C134.34 661.952 134.735 661.789 135.147 661.789H553.197C553.401 661.788 553.603 661.828 553.792 661.906C553.981 661.984 554.152 662.098 554.297 662.242C554.441 662.387 554.556 662.558 554.633 662.747C554.711 662.935 554.751 663.138 554.75 663.342Z" fill="#CCCCCC"/>
<path d="M422.553 428.541C421.459 428.561 420.374 428.341 419.375 427.897C418.375 427.452 417.485 426.794 416.767 425.969C416.049 425.143 415.521 424.17 415.22 423.118C414.919 422.067 414.853 420.962 415.025 419.881L373.495 397.142L385.65 390.568L424.135 413.682C425.931 414.092 427.514 415.146 428.585 416.645C429.655 418.144 430.139 419.983 429.944 421.814C429.749 423.646 428.888 425.342 427.526 426.582C426.164 427.822 424.395 428.519 422.553 428.541Z" fill="#FFB8B8"/>
<path d="M407.404 416.732L375.677 405.116L361.404 391.732L357.858 389.926L345.635 381.347L345.598 381.238L326.177 323.829C325.285 319.114 326.229 314.237 328.816 310.196C331.403 306.155 335.437 303.256 340.092 302.092C342.666 301.451 345.346 301.364 347.956 301.834C350.567 302.304 353.048 303.322 355.237 304.82C357.425 306.318 359.272 308.263 360.655 310.527C362.038 312.79 362.926 315.321 363.26 317.952L369.51 367.155L387.871 383.854L392.404 384.732L393.447 389.613L414.404 404.732L407.404 416.732Z" fill="#3F3D56"/>
<path d="M282.998 188.253C283.024 189.347 282.81 190.433 282.37 191.434C281.931 192.436 281.277 193.33 280.455 194.051C279.633 194.773 278.663 195.306 277.613 195.612C276.563 195.919 275.458 195.991 274.377 195.824L251.845 237.467L245.211 225.345L268.132 186.745C268.533 184.947 269.579 183.359 271.073 182.281C272.566 181.203 274.403 180.71 276.235 180.896C278.068 181.082 279.768 181.933 281.015 183.289C282.261 184.645 282.967 186.411 282.998 188.253Z" fill="#FFB8B8"/>
<path d="M286.179 304.333L272.051 283.775C272.051 283.775 274.272 283.906 272.865 279.305C272.482 278.053 268.787 273.732 268.368 272.234C267.998 270.914 267.62 269.506 267.244 268.025C265.895 262.713 258.608 257.802 259.865 251.305C265.865 220.305 268.865 214.305 269.786 209.34C269.786 209.34 264.569 190.001 256.103 201.946C247.637 213.891 234.218 244.251 237.77 259.337C241.321 274.424 254.899 323.639 259.078 327.299C263.257 330.96 286.179 304.333 286.179 304.333Z" fill="#3F3D56"/>
<path d="M330.882 231.996C329.125 231.944 329.728 228.633 328.313 227.576C328.306 227.608 328.299 227.64 328.292 227.672C328.106 228.387 327.696 229.024 327.121 229.489C326.546 229.953 325.838 230.221 325.099 230.253C324.361 230.284 323.632 230.078 323.02 229.664C322.408 229.25 321.945 228.65 321.699 227.953C321.465 227.147 321.04 226.409 320.46 225.802C319.881 225.194 319.164 224.734 318.37 224.461C318.282 227.53 315.961 230.194 313.191 231.52C310.422 232.845 307.264 233.066 304.194 233.111C301.124 232.987 298.05 233.22 295.033 233.805C292.056 234.556 289.16 236.322 287.888 239.117C286.616 241.911 287.524 245.759 290.305 247.059C288.151 247.071 286.322 248.849 285.577 250.871C284.967 252.944 284.807 255.125 285.11 257.265C285.716 265.191 287.192 273.724 292.963 279.19C297.362 283.356 303.657 285.034 309.716 285.01C315.774 284.985 314.708 284.429 320.566 282.882C320.566 282.882 326.135 266.918 324.732 265.347C323.33 263.777 322.165 261.767 322.419 259.677C322.673 257.587 324.919 255.715 326.868 256.51C326.541 255.673 326.294 255.513 326.139 255.555C326.237 255.317 326.323 255.074 326.397 254.827C326.764 253.568 327.424 252.414 328.324 251.459C329.224 250.505 330.337 249.778 331.573 249.338C332.821 248.933 334.163 248.92 335.419 249.3C336.675 249.68 337.784 250.435 338.598 251.464C345.012 245.449 341.033 232.297 330.882 231.996Z" fill="#2F2E41"/>
</g>
<defs>
<clipPath id="clip0_4_2">
<rect width="634.31" height="664.895" fill="white"/>
</clipPath>
</defs>
</svg>
